<?xml version="1.0" encoding="UTF-8" standalone="no"?>
<svg
   width="450"
   height="450"
   version="1.1"
   viewBox="0 0 119.06 119.06"
   id="svg8"
   sodipodi:docname="logo.svg"
   inkscape:version="1.4.2 (ebf0e940d0, 2025-05-08)"
   xml:space="preserve"
   xmlns:inkscape="http://www.inkscape.org/namespaces/inkscape"
   xmlns:sodipodi="http://sodipodi.sourceforge.net/DTD/sodipodi-0.dtd"
   xmlns:xlink="http://www.w3.org/1999/xlink"
   xmlns="http://www.w3.org/2000/svg"
   xmlns:svg="http://www.w3.org/2000/svg"
   xmlns:rdf="http://www.w3.org/1999/02/22-rdf-syntax-ns#"
   xmlns:cc="http://creativecommons.org/ns#"
   xmlns:dc="http://purl.org/dc/elements/1.1/"><metadata
     id="metadata14"><rdf:RDF><cc:Work
         rdf:about=""><dc:format>image/svg+xml</dc:format><dc:type
           rdf:resource="http://purl.org/dc/dcmitype/StillImage" /></cc:Work></rdf:RDF></metadata><defs
     id="defs12"><linearGradient
       id="linearGradient8"
       inkscape:collect="always"><stop
         style="stop-color:#ffffff;stop-opacity:1;"
         offset="0"
         id="stop8" /><stop
         style="stop-color:#ffffff;stop-opacity:0;"
         offset="1"
         id="stop9" /></linearGradient><linearGradient
       id="linearGradient5"
       inkscape:collect="always"><stop
         style="stop-color:#ffffff;stop-opacity:1;"
         offset="0"
         id="stop5" /><stop
         style="stop-color:#ffffff;stop-opacity:0;"
         offset="1"
         id="stop6" /></linearGradient><linearGradient
       inkscape:collect="always"
       xlink:href="#linearGradient5"
       id="linearGradient6"
       x1="50.219555"
       y1="224.52744"
       x2="69.93483"
       y2="250.04974"
       gradientUnits="userSpaceOnUse" /><filter
       inkscape:collect="always"
       style="color-interpolation-filters:sRGB"
       id="filter6"
       x="-0.013371231"
       y="-0.010883852"
       width="1.0267425"
       height="1.0217677"><feGaussianBlur
         inkscape:collect="always"
         stdDeviation="0.11038837"
         id="feGaussianBlur6" /></filter><linearGradient
       inkscape:collect="always"
       xlink:href="#linearGradient8"
       id="linearGradient9"
       x1="61.990952"
       y1="230.68445"
       x2="66.338348"
       y2="245.54149"
       gradientUnits="userSpaceOnUse"
       gradientTransform="matrix(2.4966285,0,0,2.4966285,-87.77108,-545.21611)" /></defs><sodipodi:namedview
     inkscape:document-rotation="0"
     pagecolor="#868686"
     bordercolor="#666666"
     borderopacity="1"
     objecttolerance="10"
     gridtolerance="10"
     guidetolerance="10"
     inkscape:pageopacity="0"
     inkscape:pageshadow="2"
     inkscape:window-width="1920"
     inkscape:window-height="1006"
     id="namedview10"
     showgrid="false"
     inkscape:snap-bbox="true"
     inkscape:bbox-nodes="true"
     inkscape:snap-bbox-edge-midpoints="true"
     inkscape:snap-nodes="false"
     showguides="true"
     inkscape:guide-bbox="true"
     inkscape:zoom="1.44"
     inkscape:cx="296.875"
     inkscape:cy="225.34722"
     inkscape:window-x="0"
     inkscape:window-y="0"
     inkscape:window-maximized="1"
     inkscape:current-layer="svg8"
     inkscape:showpageshadow="2"
     inkscape:pagecheckerboard="0"
     inkscape:deskcolor="#d1d1d1"><inkscape:grid
       type="xygrid"
       id="grid839"
       originx="0"
       originy="0"
       spacingy="1"
       spacingx="1"
       units="px"
       visible="false" /><sodipodi:guide
       position="59.53,62.175778"
       orientation="1,0"
       id="guide841"
       inkscape:locked="false" /></sodipodi:namedview><rect
     x="17.087318"
     y="4.0421638"
     width="84.885368"
     height="84.885368"
     fill="none"
     id="rect1"
     style="stroke-width:2.49663" /><path
     d="m 67.483172,22.590042 c 2.096219,-2.609976 3.5175,-6.155687 3.12528,-9.749834 -3.019173,0.127578 -6.780843,2.097068 -8.96015,4.630996 -1.925026,2.248139 -3.635092,5.922752 -3.192189,9.386574 3.388174,0.25266 6.858238,-1.714509 9.026809,-4.267736 z m 7.638935,22.579757 c -0.07273,-7.685621 6.288757,-11.417331 6.576868,-11.59534 -3.598641,-5.252408 -9.178855,-5.964197 -11.146198,-6.028859 -4.689418,-0.478529 -9.229037,2.817445 -11.621306,2.817445 -2.434663,-2.5e-4 -6.111498,-2.760522 -10.0714,-2.681879 -5.104107,0.07665 -9.883653,3.031656 -12.500369,7.608226 -5.386726,9.354368 -1.370999,23.093065 3.802864,30.636129 2.591751,3.712986 5.610923,7.845655 9.570825,7.682376 3.87302,-0.146802 5.316821,-2.458955 9.997749,-2.458955 4.631996,0 5.988913,2.458955 10.030206,2.379961 4.158884,-0.06391 6.774601,-3.719727 9.276473,-7.447942 2.979726,-4.253257 4.182851,-8.422876 4.231036,-8.645076 -0.09315,-0.0382 -8.061364,-3.064861 -8.146748,-12.265936 z"
     fill="#ffffff"
     id="path1"
     style="opacity:0.45;mix-blend-mode:overlay;stroke-width:2.49663" /><path
     id="path3"
     style="baseline-shift:baseline;display:inline;overflow:visible;opacity:0.15;vector-effect:none;fill:url(#linearGradient6);filter:url(#filter6);enable-background:accumulate;stop-color:#000000"
     d="m 63.437347,223.52396 c -1.2093,0.0511 -2.716026,0.83995 -3.588926,1.85489 -0.77105,0.90047 -1.455886,2.37236 -1.278486,3.75976 1.3571,0.1012 2.746888,-0.6868 3.615488,-1.70947 h 1.66e-4 c 0.83962,-1.0454 1.408858,-2.46558 1.251758,-3.90518 z m -0.486094,0.57757 c -0.0293,1.11739 -0.424427,2.21957 -1.095703,3.05668 l -1.66e-4,1.6e-4 -1.66e-4,1.7e-4 c -5.56e-4,9.1e-4 -0.0011,0.003 -0.0017,0.003 l -1.66e-4,1.7e-4 c -0.69089,0.80936 -1.757467,1.35329 -2.792881,1.44915 0.02898,-1.08891 0.497476,-2.23822 1.111308,-2.95508 0.672338,-0.7811 1.806487,-1.35188 2.779268,-1.55457 z m 0.112559,5.29357 c -1.750945,-0.0129 -3.405311,1.1475 -4.303624,1.1475 -0.97518,-1e-4 -2.447747,-1.10579 -4.033847,-1.07429 -2.0444,0.0307 -3.958932,1.21429 -5.007032,3.04739 -2.1576,3.7468 -0.549146,9.24974 1.523194,12.27104 1.0381,1.4872 2.247533,3.1425 3.833633,3.0771 1.5513,-0.0588 2.129563,-0.9848 4.004463,-0.9848 1.8553,0 2.398712,0.9849 4.017412,0.95326 1.6658,-0.0256 2.713496,-1.49 3.715596,-2.9833 1.1935,-1.7036 1.675387,-3.37359 1.694687,-3.46259 -0.03731,-0.0153 -3.228837,-1.22767 -3.263037,-4.91307 -0.02913,-3.0784 2.518936,-4.57315 2.634336,-4.64445 -1.4414,-2.1038 -3.676492,-2.38896 -4.464492,-2.41486 -0.117394,-0.012 -0.23456,-0.0181 -0.351289,-0.0189 z m -0.0045,0.42467 c 0.104275,5.4e-4 0.208194,0.006 0.311611,0.0163 l 1.66e-4,-1.7e-4 0.01561,0.002 h 0.01361 c 0.664964,0.0219 2.505233,0.30422 3.835957,1.92197 -0.04142,0.0304 -0.03748,0.022 -0.08201,0.0566 -0.273259,0.21274 -0.623479,0.52218 -0.970694,0.9335 -0.693829,0.82192 -1.377775,2.06778 -1.36332,3.72274 v 0.002 c 7e-6,7.2e-4 -6e-6,9.9e-4 0,0.002 0.01824,1.96494 0.895378,3.31456 1.76375,4.13861 0.434187,0.41203 0.864682,0.69803 1.19332,0.88486 0.08736,0.0497 0.143805,0.0753 0.214824,0.11123 -0.06342,0.18527 -0.153667,0.43364 -0.28123,0.73445 -0.263133,0.62052 -0.671387,1.43945 -1.246113,2.25981 l -0.002,0.004 -0.002,0.002 c -0.498678,0.74311 -0.999839,1.45811 -1.546767,1.96878 -0.546927,0.51067 -1.112571,0.81719 -1.822354,0.82809 h -0.002 c -0.722272,0.0141 -1.17269,-0.18795 -1.746152,-0.43164 -0.573462,-0.24369 -1.260767,-0.52345 -2.263623,-0.52345 -1.007426,0 -1.704764,0.26106 -2.287032,0.50386 -0.582268,0.24281 -1.039283,0.45617 -1.732539,0.48244 h -0.002 c -0.641137,0.0264 -1.229062,-0.29241 -1.814385,-0.8417 -0.584377,-0.54841 -1.134012,-1.31114 -1.650361,-2.05079 l -0.002,-0.004 c -0.996218,-1.45355 -1.899912,-3.53973 -2.279395,-5.69351 -0.379766,-2.15538 -0.235649,-4.36516 0.775459,-6.121 v -0.002 c 0.97654,-1.70794 2.76005,-2.80575 4.644453,-2.83405 h 0.002 c 0.691748,-0.0137 1.404971,0.22805 2.082002,0.49605 0.677031,0.268 1.295197,0.57817 1.943379,0.57824 0.674282,0 1.342996,-0.3633 2.132803,-0.66207 0.691081,-0.26143 1.437081,-0.48888 2.167002,-0.4851 z"
     transform="matrix(2.4966285,0,0,2.4966285,-87.77108,-545.21611)" /><path
     id="path6"
     style="opacity:0.1;fill:url(#linearGradient9);stroke-width:2.49663"
     d="m 70.608409,12.840183 c -1.167621,0.04943 -2.446052,0.374244 -3.701302,0.900659 a 68.262552,68.262552 0 0 1 0.575713,8.849125 h 4.15e-4 c 2.096219,-2.609976 3.517394,-6.155638 3.125174,-9.749784 z m -0.882428,14.658879 c -0.824599,-0.01 -1.641116,0.08414 -2.437965,0.244421 A 68.262552,68.262552 0 0 1 45.896321,72.400727 c 1.178271,0.794302 2.450199,1.264167 3.83725,1.206969 3.873021,-0.146801 5.316728,-2.458679 9.997657,-2.458679 4.631995,0 5.988692,2.458929 10.029985,2.379936 4.158884,-0.06391 6.774592,-3.719976 9.276463,-7.448192 2.979726,-4.253256 4.182819,-8.422601 4.231004,-8.644801 -0.09315,-0.0382 -8.061206,-3.065036 -8.146591,-12.266111 -0.07273,-7.685621 6.288847,-11.417456 6.576958,-11.595466 -3.59864,-5.252407 -9.178835,-5.964345 -11.146177,-6.029008 -0.276317,-0.02821 -0.552021,-0.04294 -0.826889,-0.04643 z" /></svg>
