<?xml version="1.0" encoding="UTF-8" standalone="no"?>
<svg
   inkscape:export-ydpi="90"
   inkscape:export-xdpi="90"
   inkscape:export-filename="/home/diau/svn/playground-plasma/desktoptheme/air/widgets/background.png"
   version="1.0"
   inkscape:output_extension="org.inkscape.output.svg.inkscape"
   sodipodi:docname="decoration.svg"
   inkscape:version="1.4.2 (ebf0e940d0, 2025-05-08)"
   sodipodi:version="0.32"
   id="svg3642"
   height="400"
   width="900"
   xmlns:inkscape="http://www.inkscape.org/namespaces/inkscape"
   xmlns:sodipodi="http://sodipodi.sourceforge.net/DTD/sodipodi-0.dtd"
   xmlns:xlink="http://www.w3.org/1999/xlink"
   xmlns="http://www.w3.org/2000/svg"
   xmlns:svg="http://www.w3.org/2000/svg">
  <sodipodi:namedview
     inkscape:document-rotation="0"
     inkscape:snap-nodes="true"
     inkscape:object-paths="true"
     inkscape:snap-intersection-paths="true"
     inkscape:snap-smooth-nodes="true"
     inkscape:snap-midpoints="true"
     inkscape:snap-bbox-edge-midpoints="true"
     inkscape:bbox-paths="true"
     inkscape:bbox-nodes="true"
     inkscape:snap-bbox="true"
     inkscape:snap-global="true"
     inkscape:window-maximized="1"
     gridtolerance="13"
     objecttolerance="9"
     inkscape:guide-bbox="true"
     showguides="true"
     height="48px"
     width="48px"
     inkscape:window-y="0"
     inkscape:window-x="0"
     inkscape:window-height="1006"
     inkscape:window-width="1920"
     inkscape:document-units="px"
     inkscape:grid-bbox="true"
     showgrid="false"
     inkscape:current-layer="layer1"
     inkscape:cy="360.62446"
     inkscape:cx="250.3158"
     inkscape:zoom="0.35355339"
     inkscape:pageshadow="2"
     inkscape:pageopacity="1"
     borderopacity="1.0"
     bordercolor="#666666"
     pagecolor="#cccccc"
     id="base"
     inkscape:pagecheckerboard="0"
     inkscape:showpageshadow="2"
     inkscape:deskcolor="#cccccc">
    <inkscape:grid
       empopacity="0.25098039"
       empcolor="#6decff"
       opacity="0.1254902"
       color="#8f8fff"
       snapvisiblegridlinesonly="true"
       empspacing="5"
       visible="true"
       enabled="true"
       id="grid2555"
       type="xygrid"
       originx="0"
       originy="0"
       spacingy="1"
       spacingx="1"
       units="px" />
  </sodipodi:namedview>
  <defs
     id="defs3644">
    <radialGradient
       inkscape:collect="always"
       xlink:href="#shadow_inactive"
       id="radialGradient969"
       gradientUnits="userSpaceOnUse"
       gradientTransform="matrix(-3.7607938e-7,-2.0571166,2.5714318,-5.1233137e-7,263.21413,719.83432)"
       cx="296.45123"
       cy="80.416672"
       fx="296.45123"
       fy="80.416672"
       r="17.5" />
    <linearGradient
       id="shadow_inactive">
      <stop
         style="stop-color:#000000;stop-opacity:1;"
         offset="0"
         id="stop6719-25" />
      <stop
         id="stop6834-1"
         offset="0.25"
         style="stop-color:#000000;stop-opacity:0.63855422;" />
      <stop
         id="stop6832-0"
         offset="0.5"
         style="stop-color:#000000;stop-opacity:0.33734939;" />
      <stop
         style="stop-color:#000000;stop-opacity:0.10843374;"
         offset="0.75"
         id="stop6836-0" />
      <stop
         id="stop6894-7"
         offset="0.875"
         style="stop-color:#000000;stop-opacity:0.03921569;" />
      <stop
         id="stop6721-4"
         offset="1"
         style="stop-color:#000000;stop-opacity:0;" />
    </linearGradient>
    <linearGradient
       inkscape:collect="always"
       xlink:href="#shadow_inactive"
       id="linearGradient1389"
       gradientUnits="userSpaceOnUse"
       gradientTransform="matrix(1.0133333,0,0,0.98837186,116.85999,53.647503)"
       x1="348.49344"
       y1="99.01548"
       x2="304.08554"
       y2="99.01548" />
    <radialGradient
       inkscape:collect="always"
       xlink:href="#shadow_inactive"
       id="radialGradient967"
       gradientUnits="userSpaceOnUse"
       gradientTransform="matrix(-2.5714291,5.3913635e-7,-2.0148289e-7,-1.201216,594.12508,500.95236)"
       cx="48.27084"
       cy="184.7908"
       fx="48.27084"
       fy="184.7908"
       r="17.5" />
    <radialGradient
       inkscape:collect="always"
       xlink:href="#shadow_active"
       id="radialGradient965"
       gradientUnits="userSpaceOnUse"
       gradientTransform="matrix(-4.0000019,3.8501383e-6,-3.4215129e-7,-4.0571426,688.08354,1013.2479)"
       cx="48.270847"
       cy="181.22313"
       fx="48.270847"
       fy="181.22313"
       r="17.5" />
    <linearGradient
       id="shadow_active">
      <stop
         id="stop7028"
         offset="0"
         style="stop-color:#000000;stop-opacity:0.92168677;" />
      <stop
         id="stop7026"
         offset="0.125"
         style="stop-color:#000000;stop-opacity:0.74096388;" />
      <stop
         id="stop6834"
         offset="0.25"
         style="stop-color:#000000;stop-opacity:0.60240966;" />
      <stop
         id="stop6832"
         offset="0.5"
         style="stop-color:#000000;stop-opacity:0.33132529;" />
      <stop
         style="stop-color:#000000;stop-opacity:0.10843374;"
         offset="0.75"
         id="stop6836" />
      <stop
         id="stop6894"
         offset="0.875"
         style="stop-color:#000000;stop-opacity:0.03921569;" />
      <stop
         id="stop6721"
         offset="1"
         style="stop-color:#000000;stop-opacity:0;" />
    </linearGradient>
    <radialGradient
       inkscape:collect="always"
       xlink:href="#shadow_active"
       id="radialGradient1306"
       gradientUnits="userSpaceOnUse"
       gradientTransform="matrix(9.4919759e-7,-2.9142759,4.0000007,1.1504403e-6,-211.66707,980.01628)"
       cx="296.47726"
       cy="80.416679"
       fx="296.47726"
       fy="80.416679"
       r="17.5" />
    <linearGradient
       inkscape:collect="always"
       xlink:href="#shadow_inactive"
       id="linearGradient6612-5"
       gradientUnits="userSpaceOnUse"
       gradientTransform="translate(200,5)"
       x1="396"
       y1="66"
       x2="396"
       y2="30" />
    <linearGradient
       inkscape:collect="always"
       xlink:href="#shadow_inactive"
       id="linearGradient5688-2"
       gradientUnits="userSpaceOnUse"
       gradientTransform="matrix(1,0,0,1.0117647,0,125.15731)"
       x1="398"
       y1="143.08141"
       x2="398"
       y2="163.83722" />
    <linearGradient
       inkscape:collect="always"
       xlink:href="#shadow_active"
       id="linearGradient1126"
       gradientUnits="userSpaceOnUse"
       gradientTransform="matrix(1.0133333,0,0,1,-3.2650058,140)"
       x1="348.49344"
       y1="99"
       x2="279.41449"
       y2="99" />
    <radialGradient
       inkscape:collect="always"
       xlink:href="#shadow_active"
       id="radialGradient1356"
       cx="293.99695"
       cy="238.99995"
       fx="293.99695"
       fy="238.99995"
       r="38"
       gradientTransform="matrix(-1.8421054,-3.0473129e-7,0,-1.8684207,891.44838,717.55257)"
       gradientUnits="userSpaceOnUse" />
    <linearGradient
       inkscape:collect="always"
       xlink:href="#shadow_active"
       id="linearGradient6612"
       gradientUnits="userSpaceOnUse"
       gradientTransform="matrix(1,0,0,1.0285694,-215,50.00005)"
       x1="396"
       y1="64.166748"
       x2="396"
       y2="14.583314" />
    <linearGradient
       inkscape:collect="always"
       xlink:href="#shadow_active"
       id="linearGradient5688"
       gradientUnits="userSpaceOnUse"
       gradientTransform="matrix(1,0,0,1.0117647,0,125.2353)"
       x1="398"
       y1="138.13953"
       x2="398"
       y2="208.31395" />
  </defs>
  <g
     transform="translate(0,-90)"
     inkscape:groupmode="layer"
     inkscape:label="Layer 1"
     id="layer1">
    <g
       id="decoration-bottom"
       transform="matrix(1.2499999,0,0,1.2499999,-278.74997,-25.999982)">
      <path
         style="opacity:0.35;fill:url(#linearGradient5688);fill-opacity:1;stroke:none;stroke-width:1.00587"
         d="M 325,276.00001 V 336 h 145 v -59.99999 z"
         id="path6217-8"
         sodipodi:nodetypes="ccccc" />
      <path
         id="path6214-7"
         d="M 470,277 H 325 v 1 h 145 z"
         style="opacity:0.1;fill:#000000;fill-opacity:1;stroke:none;stroke-width:0.413845" />
      <path
         id="path14"
         d="M 470,276 H 325 v 1 h 145 z"
         style="fill:#ffffff;fill-opacity:1" />
    </g>
    <g
       transform="matrix(1.2499999,0,0,1.2499999,-491.24995,-42.24998)"
       id="decoration-bottomleft">
      <path
         id="rect5099-9-5"
         style="opacity:0.35;fill:url(#radialGradient965);fill-opacity:1;stroke:none"
         d="m 425,289.00002 v 60 h 70 v -60 h -17 -12 z"
         sodipodi:nodetypes="ccccccc" />
      <path
         id="path12"
         d="m 465.16992,289.00002 c 0.4101,1.16742 1.51905,2 2.83008,2 h 27 v -1 h -27 c -0.74321,0 -1.38955,-0.40135 -1.73438,-1 H 466 Z"
         style="opacity:0.1;fill:#000000" />
      <path
         id="rect9"
         style="fill:#ffffff;fill-opacity:1"
         d="m 466.26562,289 c 0.34483,0.59866 0.99117,1 1.73438,1 h 27 v -1 z" />
    </g>
    <use
       x="0"
       y="0"
       xlink:href="#decoration-left"
       id="decoration-right"
       transform="matrix(-1,0,0,1,436.24996,1.2499999e-5)" />
    <path
       style="fill:#ffffff;fill-opacity:1;stroke:none;stroke-width:1.25"
       d="M 127.49999,212.74999 V 319 H 308.74997 V 212.74999 Z"
       id="decoration-center"
       sodipodi:nodetypes="ccccc" />
    <g
       id="decoration-top"
       transform="matrix(1.2499999,0,0,1.2499999,-278.74997,-44.749918)">
      <path
         id="path6055-5"
         style="opacity:0.35;fill:url(#linearGradient6612);fill-opacity:1;stroke:none;stroke-width:1.01418"
         d="M 110,65 V 86 H 255 V 65 Z"
         transform="translate(215,89.99995)"
         sodipodi:nodetypes="ccccc" />
      <path
         id="path6098-4"
         style="opacity:0.1;fill:#000000;fill-opacity:1;stroke:none"
         d="m 110,85 v 1 h 145 v -1 z"
         transform="translate(215,89.99995)" />
      <path
         style="opacity:1;fill:#ffffff;fill-opacity:1;stroke:none;stroke-width:1"
         d="m 325,175.99994 v 30.00002 h 145 v -30.00002 z"
         id="path6092-3" />
      <path
         id="path966"
         d="m 325,175.99994 v 1.00001 h 145 v -1.00001 z"
         style="opacity:0.1;fill:#ffffff;fill-opacity:1;stroke:none;stroke-width:0.182575" />
    </g>
    <g
       id="decoration-left"
       transform="matrix(1.2499999,0,0,1.2499999,-309.84371,-33.499981)">
      <path
         style="opacity:0.35;fill:url(#linearGradient1126);fill-opacity:1;stroke:none;stroke-width:1.00664"
         d="m 279.875,197 v 74 h 41 v -74 z"
         id="path6345-1" />
      <path
         id="path652"
         style="opacity:0.35;fill:url(#radialGradient1356);fill-opacity:1;stroke:none;stroke-width:1.00664"
         d="m 279.875,271 v 11 h 41.26562 c -0.16904,-0.29371 -0.26562,-0.63545 -0.26562,-1 v -10 z" />
      <path
         id="path6339-9"
         style="opacity:1;fill:#ffffff;fill-opacity:1;stroke:none;stroke-width:0.994169"
         d="m 320.875,197 v 84 c 0,0.36479 0.0964,0.70616 0.26562,1 H 349.875 v -85 z" />
      <path
         id="path7"
         d="m 319.875,197 v 84 c 0,0.35096 0.0602,0.68748 0.16992,1 h 1.0957 c -0.16924,-0.29384 -0.26562,-0.63521 -0.26562,-1 v -84 z"
         style="opacity:0.1;fill:#000000" />
    </g>
    <g
       id="decoration-inactive-bottom"
       transform="matrix(1.2499999,0,0,1.2499999,171.24999,-25.902507)">
      <path
         style="opacity:0.5;fill:url(#linearGradient5688-2);fill-opacity:1;stroke:none;stroke-width:1.00587"
         d="m 325,276.92202 v 59 h 145 v -59 z"
         id="path6217-8-2"
         sodipodi:nodetypes="ccccc" />
      <path
         id="path6214-7-4"
         d="M 470,276.92202 H 325 v 1 h 145 z"
         style="opacity:0.08;fill:#000000;fill-opacity:1;stroke:none;stroke-width:0.392425"
         inkscape:connector-curvature="0" />
      <path
         id="path1"
         d="M 470,275.92202 H 325 v 1 h 145 z"
         style="fill:#f2f2f2;fill-opacity:1" />
    </g>
    <path
       style="fill:#f2f2f2;fill-opacity:1;stroke:none;stroke-width:1.25"
       d="M 577.49995,212.74999 V 318.99996 H 758.74993 V 212.74999 Z"
       id="decoration-inactive-center"
       sodipodi:nodetypes="ccccc" />
    <g
       id="decoration-inactive-top"
       transform="matrix(1.2499999,0,0,1.2499999,171.24999,-44.74998)">
      <path
         style="opacity:0.5;fill:url(#linearGradient6612-5);fill-opacity:1;stroke:none"
         d="M 525,20 V 41 H 670 V 20 Z"
         transform="translate(-200,135)"
         id="path6055-5-5"
         inkscape:connector-curvature="0"
         sodipodi:nodetypes="ccccc" />
      <path
         transform="translate(-145,90)"
         d="m 470,85 v 1 h 145 v -1 z"
         style="opacity:0.08;fill:#000000;fill-opacity:1;stroke:none"
         id="path6098-4-8" />
      <path
         style="opacity:1;fill:#f2f2f2;fill-opacity:1;stroke:none;stroke-width:1"
         d="m 325,176 v 30 h 145 v -30 z"
         id="path6092-3-3" />
      <path
         style="opacity:0.05;fill:#ffffff;fill-opacity:1;stroke:none;stroke-width:0.182574"
         d="m 325,176 v 1 h 145 v -1 z"
         id="path996"
         inkscape:connector-curvature="0"
         sodipodi:nodetypes="ccccc" />
    </g>
    <rect
       style="fill:#ff00ff;fill-opacity:1;stroke:none;stroke-width:0.426957"
       id="shadow-hint-top-margin"
       width="4.9999995"
       height="26.249985"
       x="207.49998"
       y="149" />
    <rect
       style="fill:#ff00ff;fill-opacity:1;stroke:none;stroke-width:1.22505"
       id="shadow-hint-bottom-margin"
       width="4.9999995"
       height="73.75"
       x="208.74998"
       y="320.24997" />
    <rect
       style="fill:#ff00ff;fill-opacity:1;stroke:none;stroke-width:0.649202"
       id="shadow-hint-right-margin"
       width="51.249996"
       height="4.9999995"
       x="344.99997"
       y="250.24998" />
    <rect
       style="fill:#ff00ff;fill-opacity:1;stroke:none;stroke-width:0.649202"
       id="shadow-hint-left-margin"
       width="51.249996"
       height="4.9999995"
       x="40"
       y="242.74998" />
    <rect
       id="hint-top-margin"
       width="4.9999995"
       height="63.749992"
       x="222.49998"
       y="149"
       style="fill:#00ff29;fill-opacity:1;stroke:none;stroke-width:1.19183" />
    <rect
       id="hint-bottom-margin"
       width="4.9999995"
       height="74.999992"
       x="223.74998"
       y="318.99997"
       style="fill:#00ff29;fill-opacity:1;stroke:none;stroke-width:1.09492" />
    <rect
       id="hint-right-margin"
       width="4.9999995"
       height="87.499992"
       x="236.49998"
       y="-396.24997"
       transform="rotate(90)"
       style="fill:#00ff29;fill-opacity:1;stroke:none;stroke-width:1.10702" />
    <rect
       id="hint-left-margin"
       width="4.9999995"
       height="87.499992"
       x="232.74998"
       y="-127.49999"
       transform="rotate(90)"
       style="fill:#00ff29;fill-opacity:1;stroke:none;stroke-width:1.10768" />
    <g
       transform="matrix(-1.2499999,0,0,1.2499999,658.74994,-76.078102)"
       id="decoration-topleft">
      <path
         id="path1019"
         style="opacity:0.35;fill:url(#radialGradient1306);fill-opacity:1;stroke:none"
         d="m 40,65 v 51 h 41 v -6 C 81,96.704 91.704,86 105,86 h 5 V 65 Z"
         transform="matrix(-1,0,0,1,535,115.0625)" />
      <path
         id="path1023"
         style="fill:#ffffff;fill-opacity:1;stroke:none;stroke-width:1"
         d="m 430,201.0625 c 13.296,0 24,10.704 24,24 v 6 h -29 v -30 z" />
      <path
         id="path3"
         style="opacity:0.1;fill:#ffffff;fill-opacity:1;stroke:none;stroke-width:1"
         d="m 430,201.0625 c 13.296,0 24,10.704 24,24 v 6 h -1 v -6 c 0,-12.742 -10.258,-23 -23,-23 h -5 v -1 z" />
      <path
         id="path5"
         d="M 105,85 C 91.15,85 80,96.15 80,110 v 6 h 1 v -6 C 81,96.704 91.704,86 105,86 h 5 v -1 z"
         transform="matrix(-1,0,0,1,535,115.0625)"
         style="opacity:0.1;fill:#000000" />
    </g>
    <use
       x="0"
       y="0"
       xlink:href="#decoration-topleft"
       id="decoration-topright"
       transform="matrix(-1,0,0,1,436.24996,0)"
       width="100%"
       height="100%" />
    <use
       x="0"
       y="0"
       xlink:href="#decoration-bottomleft"
       id="decoration-bottomright"
       transform="matrix(-1,0,0,1,436.24996,-1.8749998e-5)"
       width="100%"
       height="100%" />
    <use
       x="0"
       y="0"
       xlink:href="#decoration-inactive-bottomleft"
       id="decoration-inactive-bottomright"
       transform="matrix(-1,0,0,1,1336.2499,0)"
       width="100%"
       height="100%" />
    <g
       id="decoration-inactive-bottomleft"
       transform="matrix(1.2499999,0,0,1.2499999,-9.9999949,75.250008)">
      <g
         id="g27"
         transform="translate(0,-90)">
        <path
           id="rect5099-9-6"
           style="opacity:0.5;fill:url(#radialGradient967);fill-opacity:1;stroke:none"
           d="M 400,284.99998 V 345 h 70 v -60.00002 h -17 -12 z"
           sodipodi:nodetypes="ccccccc" />
      </g>
      <path
         id="path17"
         d="m 441.26562,195 c 0.34361,0.59655 0.98666,0.99717 1.72657,1 H 470 v -1 z"
         style="fill:#f2f2f2;fill-opacity:1" />
      <path
         id="path18"
         d="m 440.16992,195 c 0.4101,1.16742 1.51905,2 2.83008,2 h 27 v -1 h -27 c -0.74321,0 -1.38955,-0.40135 -1.73438,-1 H 441 Z"
         style="opacity:0.08;fill:#000000" />
    </g>
    <g
       id="decoration-inactive-left"
       transform="matrix(1.2499999,0,0,1.2499999,-9.9999949,75.250008)">
      <path
         style="opacity:0.5;fill:url(#linearGradient1389);fill-opacity:1;stroke:none;stroke-width:1.00077"
         d="m 400,110 v 84.99998 l 41,-0.0153 V 110 Z"
         id="path6345-1-1"
         sodipodi:nodetypes="ccccc" />
      <path
         style="fill:#f2f2f2;fill-opacity:1;stroke:none;stroke-width:0.994169"
         d="m 441,110 v 84.99998 h 29 V 110 Z"
         id="path6339-9-9" />
      <path
         id="path23"
         d="m 440,110 v 84 c 0,0.35096 0.0602,0.68748 0.16992,1 h 1.0957 C 441.09638,194.70616 441,194.36479 441,194 v -84 z"
         style="opacity:0.08;fill:#000000" />
    </g>
    <use
       x="0"
       y="0"
       xlink:href="#decoration-inactive-left"
       id="decoration-inactive-right"
       transform="matrix(-1,0,0,1,1336.2499,0)" />
    <g
       id="decoration-inactive-topleft"
       transform="matrix(1.2499999,0,0,1.2499999,-9.9999949,75.250008)">
      <path
         id="rect6520-3-2-6"
         style="opacity:0.5;fill:url(#radialGradient969);fill-opacity:1;stroke:none"
         d="m 400,59 v 51 h 41 V 109.93555 104 c 0,-13.296 10.704,-24 24,-24 h 5 V 59 Z" />
      <path
         id="rect5073-4-9-6"
         style="fill:#f2f2f2;fill-opacity:1;stroke:none;stroke-width:1"
         d="m 465,80 c -13.296,0 -24,10.704 -24,24 v 5.93555 0.0644 h 29 v -30 z" />
      <path
         id="path30"
         d="m 465,79 c -13.85,0 -25,11.15 -25,25 v 6 h 1 v -6 c 0,-13.296 10.704,-24 24,-24 h 5 v -1 z"
         style="opacity:0.08;fill:#000000" />
      <path
         id="path32"
         style="opacity:0.05;fill:#ffffff;fill-opacity:1;stroke:none;stroke-width:1"
         d="m 465,80 c -13.296,0 -24,10.704 -24,24 v 1 c 0,-13.295995 10.704,-24 24,-24 h 5 v -1 z" />
    </g>
    <use
       x="0"
       y="0"
       xlink:href="#decoration-inactive-topleft"
       id="decoration-inactive-topright"
       transform="matrix(-1,0,0,1,1336.2499,0)" />
  </g>
</svg>
